#tb 0: 1/16000
0,          0,          0,     2048,     4096, 0xde68394d
0,       2048,       2048,     2048,     4096, 0xa5c28cb7
0,       4096,       4096,     2048,     4096, 0x2e3c2f23
0,       6144,       6144,     2048,     4096, 0xd7757825
0,       8192,       8192,     2048,     4096, 0xafd1fd61
0,      10240,      10240,     2048,     4096, 0x686afcbe
0,      12288,      12288,     2048,     4096, 0x2290e848
0,      14336,      14336,     2048,     4096, 0xddd484ad
0,      16384,      16384,     2048,     4096, 0x148811a6
0,      18432,      18432,     2048,     4096, 0x8b965613
0,      20480,      20480,     2048,     4096, 0x8b095d51
0,      22528,      22528,     2048,     4096, 0xf7625485
0,      24576,      24576,     2048,     4096, 0x982a688c
0,      26624,      26624,     2048,     4096, 0xc290dcfc
0,      28672,      28672,     2048,     4096, 0x8bdef225
0,      30720,      30720,     2048,     4096, 0xfca27fdc
0,      32768,      32768,     2048,     4096, 0x95eff313
0,      34816,      34816,     2048,     4096, 0x691ed4f7
0,      36864,      36864,     2048,     4096, 0xd7e7b492
0,      38912,      38912,     2048,     4096, 0xb0416bfe
0,      40960,      40960,     2048,     4096, 0xf94b3ebd
0,      43008,      43008,     2048,     4096, 0x7f73ca12
0,      45056,      45056,     2048,     4096, 0xe91da4a3
0,      47104,      47104,     2048,     4096, 0x1f74dc0e
0,      49152,      49152,     2048,     4096, 0xd95b35e8
0,      51200,      51200,     2048,     4096, 0x6dcdde1a
0,      53248,      53248,     2048,     4096, 0x614fd4e4
0,      55296,      55296,     2048,     4096, 0xe38d0fd5
0,      57344,      57344,     2048,     4096, 0xfeba2999
0,      59392,      59392,     2048,     4096, 0x1bf541e1
0,      61440,      61440,     2048,     4096, 0x689f50d8
0,      63488,      63488,     2048,     4096, 0x0aa60f5f
0,      65536,      65536,     2048,     4096, 0x60ac3116
0,      67584,      67584,     2048,     4096, 0xfa60e5e6
0,      69632,      69632,     2048,     4096, 0xc7207c5b
0,      71680,      71680,     2048,     4096, 0x01196277
0,      73728,      73728,     2048,     4096, 0x609ca46c
0,      75776,      75776,     2048,     4096, 0xfb799142
0,      77824,      77824,     2048,     4096, 0x720910df
0,      79872,      79872,     2048,     4096, 0xe21a8662
0,      81920,      81920,     2048,     4096, 0x07105120
0,      83968,      83968,     2048,     4096, 0x593f627e
0,      86016,      86016,     2048,     4096, 0x28ddc80c
0,      88064,      88064,     2048,     4096, 0xc69ef356
0,      90112,      90112,     2048,     4096, 0x2defc5bd
0,      92160,      92160,     2048,     4096, 0x82a4f418
0,      94208,      94208,     2048,     4096, 0x424cb997
0,      96256,      96256,     2048,     4096, 0x167a49b7
0,      98304,      98304,     2048,     4096, 0x32a3e0d4
0,     100352,     100352,     2048,     4096, 0x08a353ae
0,     102400,     102400,     2048,     4096, 0x9543577b
0,     104448,     104448,     2048,     4096, 0x2ed137cf
0,     106496,     106496,     2048,     4096, 0xd80b0538
0,     108544,     108544,     2048,     4096, 0x2ad31bef
0,     110592,     110592,     2048,     4096, 0x1060cff8
0,     112640,     112640,     2048,     4096, 0x76ab5ab8
0,     114688,     114688,     2048,     4096, 0x8eedb68d
0,     116736,     116736,     2048,     4096, 0xf4e2dc46
0,     118784,     118784,     2048,     4096, 0xc52d3326
0,     120832,     120832,     2048,     4096, 0x25201a26
0,     122880,     122880,     2048,     4096, 0x16419378
0,     124928,     124928,     2048,     4096, 0x97061f3c
0,     126976,     126976,     2048,     4096, 0xd54edecd
0,     129024,     129024,     2048,     4096, 0xc830b07b
0,     131072,     131072,     2048,     4096, 0x804bae00
0,     133120,     133120,     2048,     4096, 0xbb279150
0,     135168,     135168,     2048,     4096, 0x95c4d5aa
0,     137216,     137216,     2048,     4096, 0xc51d5259
0,     139264,     139264,     2048,     4096, 0x856e1ab0
0,     141312,     141312,     2048,     4096, 0x9e6ccb12
0,     143360,     143360,     2048,     4096, 0xa2e5c1bb
0,     145408,     145408,     2048,     4096, 0xe62fb62f
0,     147456,     147456,     2048,     4096, 0xf10e3df0
0,     149504,     149504,     2048,     4096, 0x76def18b
0,     151552,     151552,     2048,     4096, 0xc9c3a26d
0,     153600,     153600,     2048,     4096, 0x8ec0e061
0,     155648,     155648,     2048,     4096, 0x3d4e8512
0,     157696,     157696,     2048,     4096, 0xec45cd46
0,     159744,     159744,     2048,     4096, 0xa34f3ddf
0,     161792,     161792,     2048,     4096, 0x52b81c53
0,     163840,     163840,     2048,     4096, 0xd0f0397a
0,     165888,     165888,     2048,     4096, 0x7c0de231
0,     167936,     167936,     2048,     4096, 0xfe86c032
0,     169984,     169984,     2048,     4096, 0x67cdb848
0,     172032,     172032,     2048,     4096, 0x90532cc0
0,     174080,     174080,     2048,     4096, 0x03bca9e9
0,     176128,     176128,     2048,     4096, 0x73169fd1
0,     178176,     178176,     2048,     4096, 0x0b93967d
0,     180224,     180224,     2048,     4096, 0x6486d8be
0,     182272,     182272,     2048,     4096, 0x555cc2ac
0,     184320,     184320,     2048,     4096, 0x07c1912e
0,     186368,     186368,     2048,     4096, 0xe0423c66
0,     188416,     188416,     2048,     4096, 0xc12d0fa1
0,     190464,     190464,     2048,     4096, 0xdf497c2f
0,     192512,     192512,     2048,     4096, 0x9298d1ba
0,     194560,     194560,     2048,     4096, 0x691a4e15
0,     196608,     196608,     2048,     4096, 0x725adc6e
0,     198656,     198656,     2048,     4096, 0xf68e88de
0,     200704,     200704,     2048,     4096, 0x37a234aa
0,     202752,     202752,     2048,     4096, 0x43fb0558
0,     204800,     204800,     2048,     4096, 0x653e4320
0,     206848,     206848,     2048,     4096, 0x651e2f13
0,     208896,     208896,     2048,     4096, 0x179049f9
0,     210944,     210944,     2048,     4096, 0xe02fbb9d
0,     212992,     212992,     2048,     4096, 0xb7e9f2a0
0,     215040,     215040,     2048,     4096, 0x94ee81df
0,     217088,     217088,     2048,     4096, 0x398a98de
0,     219136,     219136,     2048,     4096, 0x1267594a
0,     221184,     221184,     2048,     4096, 0x715adbaf
0,     223232,     223232,     2048,     4096, 0x28ce1a20
0,     225280,     225280,     2048,     4096, 0x4f8073d0
0,     227328,     227328,     2048,     4096, 0x536846d3
0,     229376,     229376,     2048,     4096, 0x7dc7defe
0,     231424,     231424,     2048,     4096, 0x08a28e2a
0,     233472,     233472,     2048,     4096, 0xd717c5cd
0,     235520,     235520,     2048,     4096, 0x5d6e1efd
0,     237568,     237568,     2048,     4096, 0x4d0eea27
0,     239616,     239616,     2048,     4096, 0x70fff90c
0,     241664,     241664,     2048,     4096, 0xd5cc8207
0,     243712,     243712,     2048,     4096, 0xf87cae0e
0,     245760,     245760,     2048,     4096, 0x26814ab5
0,     247808,     247808,     2048,     4096, 0x9569fb8d
0,     249856,     249856,     2048,     4096, 0x7835122e
0,     251904,     251904,     2048,     4096, 0xa38840dd
0,     253952,     253952,     2048,     4096, 0xfc499ba3
0,     256000,     256000,     2048,     4096, 0x0aa60cb0
0,     258048,     258048,     2048,     4096, 0x530ef56e
0,     260096,     260096,     2048,     4096, 0xead968db
0,     262144,     262144,     2048,     4096, 0x64484214
0,     264192,     264192,     2048,     4096, 0xfd0cc89e
0,     266240,     266240,     2048,     4096, 0x0d452a5d
0,     268288,     268288,     2048,     4096, 0x36ef8482
0,     270336,     270336,     2048,     4096, 0x462b641b
0,     272384,     272384,     2048,     4096, 0x2a5c1c0c
0,     274432,     274432,     2048,     4096, 0x8837ff80
0,     276480,     276480,     2048,     4096, 0x27a3de22
0,     278528,     278528,     2048,     4096, 0xf88d28c1
0,     280576,     280576,     2048,     4096, 0xed85ea97
0,     282624,     282624,     2048,     4096, 0x50c3e7db
0,     284672,     284672,     2048,     4096, 0x82bcb480
0,     286720,     286720,     2048,     4096, 0xc50ee536
0,     288768,     288768,     2048,     4096, 0x086280ee
0,     290816,     290816,     2048,     4096, 0x6f18f2b2
0,     292864,     292864,     2048,     4096, 0x1c7c0856
0,     294912,     294912,     2048,     4096, 0xc576268a
0,     296960,     296960,     2048,     4096, 0x7a9af56d
0,     299008,     299008,     2048,     4096, 0x6d058fc5
0,     301056,     301056,     2048,     4096, 0x8fb1107b
0,     303104,     303104,     2048,     4096, 0x807588d1
0,     305152,     305152,     2048,     4096, 0x56178443
0,     307200,     307200,     2048,     4096, 0xf2460763
0,     309248,     309248,     2048,     4096, 0x284255f2
0,     311296,     311296,     2048,     4096, 0xb29d17fb
0,     313344,     313344,     2048,     4096, 0x5e7e4633
0,     315392,     315392,     2048,     4096, 0x57704db1
0,     317440,     317440,     2048,     4096, 0xd87dcc1d
0,     319488,     319488,     2048,     4096, 0x28d4bb93
0,     321536,     321536,     2048,     4096, 0x3a2e5c6c
0,     323584,     323584,     2048,     4096, 0xf3581656
0,     325632,     325632,     2048,     4096, 0x42f1942f
0,     327680,     327680,     2048,     4096, 0xe75c5092
0,     329728,     329728,     2048,     4096, 0x3fae7f6d
0,     331776,     331776,     2048,     4096, 0xf99ad73e
0,     333824,     333824,     2048,     4096, 0x80564e3e
0,     335872,     335872,     2048,     4096, 0x8ff6ebe5
0,     337920,     337920,     2048,     4096, 0x436d5e69
0,     339968,     339968,      684,     1368, 0xe0ebeda3
